<?xml version="1.0" standalone="no"?>
<!DOCTYPE svg PUBLIC "-//W3C//DTD SVG 20010904//EN"
 "http://www.w3.org/TR/2001/REC-SVG-20010904/DTD/svg10.dtd">
<svg version="1.0" xmlns="http://www.w3.org/2000/svg"
 width="400.000000pt" height="400.000000pt" viewBox="0 0 400.000000 400.000000"
 preserveAspectRatio="xMidYMid meet">
<metadata>
Created by potrace 1.11, written by Peter Selinger 2001-2013
</metadata>
<g transform="translate(0.000000,400.000000) scale(0.100000,-0.100000)"
fill="#000000" stroke="none">
<path d="M0 3989 c0 -6 27 -9 73 -8 39 1 97 2 127 1 30 0 66 0 80 1 65 2 242
-15 272 -27 24 -10 76 -12 198 -9 324 9 334 9 361 -7 23 -12 37 -12 90 -1 103
20 159 24 159 12 0 -6 11 -16 25 -21 20 -8 32 -6 53 8 20 13 49 17 128 18 76
1 109 5 127 17 22 14 26 14 40 0 13 -14 25 -14 79 -6 49 8 69 8 89 -3 19 -10
29 -10 37 -2 8 8 21 9 44 2 20 -6 52 -7 78 -2 25 5 90 10 145 12 55 3 105 5
110 6 6 0 22 -2 37 -6 17 -4 35 0 50 10 21 15 -75 16 -1190 16 -845 0 -1212
-3 -1212 -11z"/>
<path d="M2471 3982 c38 -28 71 -40 140 -47 57 -6 67 -4 89 15 21 19 33 21 79
17 30 -3 62 -2 71 3 15 8 80 -7 96 -22 3 -4 16 -2 29 4 16 7 29 7 43 -1 27
-14 260 -13 283 2 13 8 25 8 43 -1 17 -8 52 -10 101 -5 46 4 75 2 75 -4 0 -16
331 -9 357 8 19 11 25 11 42 -5 11 -10 31 -16 48 -14 24 2 28 8 31 36 l3 32
-777 0 c-748 0 -776 -1 -753 -18z"/>
<path d="M2985 3891 c-17 -3 -30 -13 -30 -21 0 -17 65 -33 80 -19 5 5 24 9 42
9 37 0 43 14 14 30 -21 11 -58 11 -106 1z"/>
<path d="M481 3711 c-45 -62 -15 -93 63 -67 25 9 51 13 58 11 27 -11 124 -12
160 -2 20 5 39 16 43 24 4 12 -4 14 -47 11 -75 -7 -152 8 -220 43 -27 14 -35
11 -57 -20z"/>
<path d="M150 3659 c0 -5 7 -9 15 -9 8 0 15 -7 15 -15 0 -8 5 -15 10 -15 6 0
10 11 10 24 0 18 -5 24 -25 24 -14 0 -25 -4 -25 -9z"/>
<path d="M1650 3654 c0 -8 5 -12 10 -9 6 4 8 11 5 16 -9 14 -15 11 -15 -7z"/>
<path d="M268 3643 c7 -3 16 -2 19 1 4 3 -2 6 -13 5 -11 0 -14 -3 -6 -6z"/>
<path d="M3230 3635 c-7 -9 -22 -14 -33 -13 -26 4 -34 -18 -9 -24 27 -7 87 15
87 32 0 21 -29 24 -45 5z"/>
<path d="M697 3526 c-4 -9 -2 -16 4 -16 6 0 20 -11 30 -24 31 -39 129 -41 129
-2 0 39 -150 77 -163 42z"/>
<path d="M520 3509 c0 -5 5 -7 10 -4 6 3 10 8 10 11 0 2 -4 4 -10 4 -5 0 -10
-5 -10 -11z"/>
<path d="M470 3480 c0 -5 7 -7 15 -4 8 4 15 8 15 10 0 2 -7 4 -15 4 -8 0 -15
-4 -15 -10z"/>
<path d="M1105 3480 c3 -5 8 -10 11 -10 2 0 4 5 4 10 0 6 -5 10 -11 10 -5 0
-7 -4 -4 -10z"/>
<path d="M3960 3237 c-52 -52 -83 -112 -70 -137 8 -15 6 -21 -9 -29 -21 -12
-34 -61 -20 -76 5 -5 9 -28 9 -51 0 -29 5 -44 16 -48 25 -10 32 -7 59 22 23
23 26 33 21 72 -5 35 -1 53 14 78 17 28 20 48 18 119 l-3 85 -35 -35z"/>
<path d="M2978 3173 c-10 -2 -18 -10 -18 -17 0 -12 54 -36 83 -36 24 0 21 21
-3 27 -11 3 -20 12 -20 19 0 14 -10 16 -42 7z"/>
<path d="M3473 3144 c-30 -15 -49 -41 -38 -52 3 -3 26 4 50 16 25 12 53 22 61
22 25 0 10 25 -17 28 -13 1 -38 -5 -56 -14z"/>
<path d="M2790 3081 c0 -17 4 -19 32 -10 18 5 34 9 36 9 2 0 0 5 -3 10 -3 6
-19 10 -36 10 -22 0 -29 -5 -29 -19z"/>
<path d="M3265 3092 c-15 -15 -2 -32 25 -32 37 0 41 26 5 32 -13 3 -27 3 -30
0z"/>
<path d="M3147 3070 c-18 -15 -19 -20 -8 -34 18 -22 43 -20 69 4 30 28 28 37
-9 42 -20 3 -38 -1 -52 -12z"/>
<path d="M3540 3067 c0 -28 17 -47 42 -47 24 0 23 32 0 53 -26 24 -42 21 -42
-6z"/>
<path d="M3350 3065 c-10 -12 -10 -18 0 -30 21 -25 54 -15 58 18 3 23 0 27
-21 27 -14 0 -30 -7 -37 -15z"/>
<path d="M2735 3050 c-3 -5 -1 -10 4 -10 6 0 11 5 11 10 0 6 -2 10 -4 10 -3 0
-8 -4 -11 -10z"/>
<path d="M3448 3023 c-22 -6 -33 -40 -18 -58 9 -10 18 -11 41 -3 31 11 35 19
19 49 -11 19 -13 20 -42 12z"/>
<path d="M3071 2987 c-6 -8 -8 -17 -5 -20 10 -9 45 13 39 24 -9 13 -21 11 -34
-4z"/>
<path d="M3240 2990 c0 -5 5 -10 10 -10 6 0 10 5 10 10 0 6 -4 10 -10 10 -5 0
-10 -4 -10 -10z"/>
<path d="M2258 2911 c-10 -10 -18 -26 -18 -37 0 -17 1 -16 16 4 11 16 21 21
40 16 26 -7 32 4 12 24 -16 16 -30 14 -50 -7z"/>
<path d="M2498 2875 c-3 -14 -1 -25 3 -25 5 0 9 4 9 9 0 5 3 16 6 25 3 9 2 16
-4 16 -5 0 -12 -11 -14 -25z"/>
<path d="M970 2850 c0 -5 5 -10 10 -10 6 0 10 5 10 10 0 6 -4 10 -10 10 -5 0
-10 -4 -10 -10z"/>
<path d="M1110 2836 c0 -20 -4 -22 -27 -18 -27 5 -27 5 8 -28 l34 -32 -40 22
c-25 14 -41 18 -43 11 -2 -6 -10 -11 -18 -11 -17 0 -18 -12 -2 -28 9 -9 9 -12
0 -12 -15 0 -4 -31 17 -48 14 -11 12 -15 -17 -38 -38 -31 -43 -52 -5 -27 21
14 25 14 21 3 -2 -8 -10 -15 -17 -15 -18 0 -29 -24 -23 -49 3 -11 2 -18 -2
-15 -4 4 -8 20 -11 37 -5 43 -12 52 -41 52 -30 0 -30 5 1 35 16 14 22 26 15
30 -17 10 -48 -4 -55 -26 -4 -12 -20 -25 -35 -31 -28 -9 -31 -33 -7 -50 7 -4
6 -16 -1 -35 -6 -15 -14 -44 -17 -64 -5 -24 -20 -50 -46 -75 -21 -21 -39 -44
-39 -51 0 -7 -4 -13 -10 -13 -5 0 -10 -5 -10 -11 0 -6 7 -8 16 -5 9 3 12 2 9
-5 -4 -6 -13 -8 -21 -5 -7 3 -17 -1 -21 -8 -5 -7 -24 -21 -44 -30 -33 -15 -40
-15 -94 -1 -83 21 -100 18 -35 -6 30 -12 63 -23 72 -26 10 -3 15 -9 13 -14 -6
-9 -22 -5 -85 24 -42 19 -133 27 -147 13 -4 -3 4 -6 16 -6 30 0 58 -16 101
-57 19 -19 45 -44 57 -55 14 -13 23 -33 23 -52 0 -17 7 -40 15 -50 19 -25 19
-36 0 -36 -8 0 -15 4 -15 9 0 5 -42 53 -93 106 -89 93 -93 96 -141 99 -27 2
-70 -3 -95 -12 l-46 -15 47 -16 c120 -41 273 -255 293 -412 9 -72 24 -129 34
-129 12 0 37 -67 51 -135 23 -115 76 -251 110 -284 53 -50 85 -56 295 -55
l190 1 84 33 83 34 27 -31 c28 -32 104 -60 141 -50 18 5 20 0 21 -51 2 -116
18 -369 28 -432 6 -36 8 -119 4 -187 l-6 -122 49 -45 c43 -39 48 -47 37 -64
-10 -16 -9 -21 2 -26 17 -6 29 9 19 27 -3 6 6 -1 22 -18 l29 -30 6 45 c5 38
13 33 12 -8 -1 -6 2 -12 6 -12 4 0 5 -17 3 -38 -2 -27 -1 -33 7 -22 5 8 7 18
5 22 -3 5 2 11 11 14 10 4 13 13 10 25 -4 12 -2 19 7 19 7 0 -3 15 -24 34 -20
18 -48 59 -63 90 -24 51 -27 69 -28 179 -1 70 4 146 11 179 7 32 17 100 22
150 5 51 14 115 20 142 8 38 7 52 -2 58 -18 11 -68 10 -68 -2 0 -5 6 -10 13
-10 7 0 22 -7 33 -15 18 -15 17 -16 -13 -10 -18 4 -34 2 -38 -4 -3 -6 -14 -11
-23 -11 -15 0 -15 2 -2 10 13 8 13 10 -1 10 -23 0 -32 40 -14 60 8 9 15 22 15
28 0 8 9 10 24 6 16 -4 25 -1 30 12 5 14 2 16 -26 11 -32 -6 -33 -6 -8 7 36
19 84 26 100 15 13 -8 13 -10 1 -18 -9 -6 -11 -15 -6 -27 8 -18 8 -18 13 1 2
11 9 25 14 32 5 7 11 37 11 67 1 29 5 52 9 50 4 -2 9 0 13 6 3 5 13 10 21 10
10 0 14 -12 14 -44 0 -24 4 -46 8 -48 5 -1 18 -37 29 -78 12 -41 30 -99 41
-128 12 -30 24 -79 27 -110 3 -32 17 -95 30 -142 20 -69 25 -115 29 -239 4
-155 -1 -184 -32 -173 -6 2 -12 -3 -12 -11 0 -9 8 -17 17 -19 12 -2 17 -16 20
-53 4 -40 2 -48 -8 -38 -7 7 -13 29 -13 48 0 48 -14 44 -28 -9 -8 -29 -16 -42
-25 -39 -9 3 -13 -4 -13 -21 0 -24 2 -25 20 -16 12 7 20 21 20 37 0 25 1 26
14 8 12 -16 11 -21 -5 -39 -20 -20 -21 -37 -3 -43 5 -2 15 11 22 29 6 17 15
29 18 25 4 -4 12 0 18 9 12 16 50 9 40 -8 -8 -13 16 -69 28 -62 5 3 7 13 4 21
-3 8 -1 11 4 8 6 -3 10 -1 10 5 0 6 4 9 8 6 5 -3 5 18 1 47 -5 28 -13 53 -18
55 -5 2 -7 12 -4 23 4 14 11 18 24 14 14 -5 17 -2 13 8 -3 8 0 18 7 23 8 4 10
3 5 -4 -4 -7 -2 -12 4 -12 21 0 26 43 13 133 -15 110 -18 243 -6 312 5 28 8
88 8 135 0 47 5 88 10 92 7 5 6 14 -2 26 -9 15 -8 22 5 35 14 15 14 17 -1 23
-24 9 -21 34 3 34 22 0 26 10 9 27 -8 8 -8 13 0 17 8 5 8 13 1 26 -7 13 -6 21
5 30 8 7 15 21 15 31 0 23 10 23 75 3 212 -66 408 -89 537 -65 124 24 235 68
318 127 l34 25 18 -36 c10 -19 23 -35 29 -35 6 0 8 -3 6 -8 -3 -4 3 -24 13
-44 9 -20 20 -48 24 -62 5 -21 12 -26 36 -26 17 0 30 -4 30 -8 0 -9 178 19
198 31 14 9 16 53 3 62 -5 3 -8 18 -6 35 5 35 -16 45 -72 34 -21 -5 -44 -7
-51 -6 -7 2 -19 -4 -28 -13 -8 -8 -30 -14 -47 -14 -30 2 -31 2 -4 6 30 5 36
19 10 26 -10 2 8 7 39 11 32 5 74 14 94 21 52 17 74 9 74 -27 0 -29 50 -149
75 -178 7 -8 20 -42 30 -75 10 -33 24 -67 31 -75 7 -8 18 -46 25 -85 6 -38 22
-100 35 -136 21 -58 23 -77 19 -180 -7 -157 -23 -266 -46 -310 -10 -21 -19
-45 -19 -54 0 -8 -4 -15 -10 -15 -5 0 -10 -5 -10 -11 0 -6 8 -8 19 -4 13 4 20
0 24 -16 l6 -22 30 24 c16 13 30 30 30 37 1 7 6 10 11 7 7 -4 7 -13 0 -26 -13
-23 -7 -25 14 -3 9 9 16 11 16 4 0 -6 5 -8 10 -5 6 3 10 23 10 44 0 20 5 42
12 49 8 8 8 12 1 12 -6 0 -18 -17 -26 -38 -9 -20 -16 -30 -16 -22 -1 8 5 27
13 41 9 18 10 32 4 44 -7 12 -6 21 2 28 10 9 11 9 8 -3 -5 -16 14 -40 32 -40
12 0 10 30 -6 120 -4 22 -3 23 5 5 11 -23 10 -38 15 165 2 99 7 155 14 158 6
2 15 20 18 40 l7 37 11 -35 c8 -27 12 68 14 389 2 464 5 438 -57 510 -22 25
-20 44 4 34 22 -8 19 30 -3 50 -10 10 -24 17 -30 17 -6 0 -14 5 -17 11 -5 7 3
9 24 6 22 -4 29 -2 24 6 -7 12 -8 20 -11 98 -1 19 -8 44 -16 55 -14 19 -14 19
-13 -1 1 -14 -5 -20 -20 -21 -15 -1 -22 4 -20 15 3 31 -24 104 -35 93 -7 -7
-22 2 -46 28 -73 75 -183 58 -238 -36 -16 -27 -32 -50 -36 -52 -4 -2 -8 -10
-8 -19 0 -8 -6 -29 -14 -46 -36 -78 -46 -112 -46 -155 0 -39 7 -55 55 -119 50
-65 59 -73 89 -73 24 0 43 9 65 29 18 16 47 35 66 41 19 6 35 16 35 22 0 6 2
9 5 6 9 -9 -34 -100 -45 -93 -6 4 -10 -7 -11 -27 -1 -18 -3 -25 -6 -15 -4 16
-6 16 -30 -3 -27 -21 -48 -27 -38 -10 10 16 -23 12 -50 -6 -14 -9 -25 -12 -25
-6 0 6 6 13 13 15 7 3 5 6 -5 6 -10 1 -22 -8 -28 -18 -11 -21 -40 -26 -212
-35 -93 -5 -98 -4 -98 15 0 11 10 23 23 28 24 10 69 55 85 86 6 11 22 68 36
125 30 121 34 207 11 216 -22 9 -42 -12 -48 -49 -3 -18 -10 -48 -16 -67 -5
-19 -17 -64 -26 -100 -10 -38 -26 -76 -41 -91 -13 -14 -24 -32 -24 -41 0 -9
-10 -18 -23 -20 -15 -3 -24 0 -24 9 0 7 4 13 8 13 5 0 6 7 3 15 -3 8 4 28 15
44 12 16 24 43 27 60 4 17 9 29 13 26 4 -2 8 33 9 78 3 100 9 135 34 201 11
28 22 58 25 66 8 26 75 70 105 70 35 0 33 -19 -3 -37 -53 -27 -68 -88 -24 -99
21 -5 34 2 73 41 26 26 71 58 101 72 45 21 62 24 107 19 83 -10 70 15 -23 46
-133 43 -273 22 -357 -54 -23 -21 -44 -38 -48 -38 -4 0 -10 -10 -14 -22 -3
-13 -12 -30 -19 -38 -7 -8 -23 -43 -36 -78 -30 -79 -86 -143 -118 -135 -19 5
-22 10 -16 32 3 14 6 35 6 46 0 24 23 94 45 138 20 39 104 127 121 127 22 0
14 -18 -22 -47 -38 -32 -101 -149 -107 -198 -6 -53 15 -42 39 21 19 50 98 162
183 261 18 21 11 26 -32 21 -96 -12 -218 -92 -260 -171 -55 -105 -64 -147 -63
-282 0 -44 -3 -82 -6 -85 -3 -3 -3 -25 1 -50 4 -25 8 -36 9 -25 1 16 3 17 10
6 8 -12 12 -13 25 -1 14 11 16 11 11 -2 -3 -8 0 -20 7 -25 10 -9 13 -1 15 38
1 29 8 55 17 65 9 9 28 31 42 50 21 27 30 32 40 23 11 -9 14 -8 14 1 0 10 3
10 15 0 34 -28 6 -88 -39 -82 -17 2 -18 1 -6 -7 12 -8 12 -13 -4 -30 -11 -12
-24 -21 -30 -21 -6 0 -6 4 1 11 13 13 5 42 -9 33 -6 -4 -5 -10 3 -15 11 -7 10
-9 -4 -9 -9 0 -16 -3 -15 -7 0 -5 -2 -16 -6 -25 -4 -10 -6 -23 -3 -30 3 -7 6
-3 6 10 1 12 5 22 11 22 6 0 6 -9 1 -22 -7 -18 -16 -23 -44 -22 -26 1 -34 -2
-30 -13 3 -9 0 -11 -10 -7 -10 3 -13 12 -10 22 4 9 2 14 -2 9 -5 -4 -20 12
-34 35 -24 41 -26 50 -26 183 l0 140 33 55 c52 87 56 93 77 112 28 25 80 58
155 98 61 32 70 34 165 35 55 0 124 -4 153 -9 65 -11 71 6 9 24 -49 13 -137
17 -182 8 -16 -4 -70 -12 -120 -19 -57 -8 -96 -19 -108 -29 -10 -10 -26 -16
-36 -13 -10 2 -34 -2 -54 -11 -21 -8 -37 -11 -37 -5 0 5 7 12 15 15 28 11 18
67 -20 118 -37 48 -49 57 -39 31 5 -11 2 -13 -10 -9 -9 3 -16 1 -16 -5 0 -6
-7 -8 -15 -5 -14 6 -45 -16 -45 -31 0 -4 11 -4 25 -1 30 8 65 -9 65 -30 0 -8
-4 -13 -9 -9 -5 3 -12 1 -16 -5 -3 -6 -18 -9 -33 -8 -15 1 -38 -2 -52 -7 -23
-7 -23 -7 -7 10 28 28 14 28 -42 -1 -55 -27 -80 -27 -38 0 13 9 47 39 75 65
44 44 47 49 25 47 -15 -2 -33 -15 -45 -35 -11 -17 -38 -41 -59 -51 -21 -11
-40 -24 -44 -30 -12 -19 -23 -10 -44 35 -28 60 -27 81 4 89 15 4 30 17 35 31
5 14 14 25 20 25 17 0 11 18 -7 22 -28 5 -94 -32 -104 -59 -13 -35 -11 -69 5
-86 42 -41 81 -157 54 -157 -4 0 -8 9 -8 21 0 26 -17 59 -42 81 -24 20 -44
137 -34 191 6 34 8 36 32 27 36 -14 39 -13 52 15 14 31 4 37 -48 32 -31 -4
-38 0 -69 41 l-34 45 -13 -24 -13 -24 -1 28 c0 15 -4 27 -10 27 -5 0 -10 -4
-10 -8 0 -4 -14 -16 -31 -26 -27 -16 -36 -17 -77 -5 -51 14 -62 23 -62 54 0
18 1 18 13 -4 15 -29 83 -54 109 -40 26 14 18 33 -17 39 -16 3 -31 14 -35 24
-5 14 -9 16 -14 7 -4 -6 -2 -19 5 -27 18 -22 3 -28 -18 -7 -14 14 -20 35 -21
71 -1 50 -1 51 19 31 26 -26 33 -24 68 18 39 47 41 72 6 65 -14 -2 -31 1 -39
7 -10 8 -16 8 -25 -3 -7 -8 -19 -12 -27 -9 -8 3 -14 -1 -14 -8 0 -10 -4 -9
-16 3 -15 15 -19 15 -48 -1 -17 -9 -32 -19 -34 -23 -2 -5 -8 -8 -14 -8 -13 0
-47 -41 -48 -57 0 -7 -7 -13 -16 -13 -8 0 -36 -20 -60 -44 -24 -25 -70 -66
-101 -93 -31 -26 -82 -73 -113 -103 -57 -56 -108 -95 -116 -87 -4 4 79 84 115
109 30 22 32 45 6 72 -13 14 -31 26 -40 26 -8 0 -15 4 -15 10 0 5 -7 7 -15 4
-9 -4 -15 0 -15 10 0 9 -5 16 -10 16 -6 0 -23 12 -38 28 -15 16 -35 26 -46 24
-12 -3 -17 1 -14 9 3 8 -5 21 -16 30 -24 17 -105 43 -113 35 -8 -8 -34 22 -31
36 2 7 -5 12 -15 12 -10 -1 -39 9 -64 22 -32 16 -49 20 -54 12 -4 -6 -11 -8
-17 -4 -6 3 -13 2 -17 -3 -3 -6 -13 -7 -22 -4 -12 5 -15 2 -10 -10 8 -21 -9
-23 -20 -2 -11 18 -80 28 -87 12 -3 -8 -9 -6 -16 6 -16 25 -40 21 -40 -7z m66
-74 c1 -9 5 -32 9 -51 8 -32 7 -33 -14 -22 -25 14 -25 11 -7 -34 12 -29 12
-34 0 -39 -8 -3 -14 -14 -14 -25 0 -11 -5 -23 -11 -27 -8 -5 -10 3 -5 27 3 19
6 53 6 76 -1 23 4 44 10 48 5 3 10 22 10 42 0 36 12 39 16 5z m134 -94 c0 -28
-49 -120 -61 -113 -5 4 -1 17 11 32 11 14 20 33 20 42 -1 14 -2 14 -14 -2 -13
-17 -14 -16 -19 2 -3 14 1 22 14 26 11 4 17 10 14 15 -3 4 -2 15 1 24 8 22 34
2 34 -26z m910 32 c0 -5 -7 -10 -16 -10 -8 0 -12 5 -9 10 3 6 10 10 16 10 5 0
9 -4 9 -10z m35 0 c3 -5 -1 -10 -10 -10 -9 0 -13 5 -10 10 3 6 8 10 10 10 2 0
7 -4 10 -10z m-1135 -76 c0 -50 -2 -55 -27 -66 -22 -9 -24 -12 -10 -15 9 -3
17 -9 17 -14 0 -12 -5 -12 -45 5 -36 15 -42 29 -25 56 14 22 23 5 10 -19 -9
-17 -8 -21 5 -21 8 0 15 8 15 19 0 10 9 30 20 44 11 14 20 37 20 52 0 15 4 24
10 20 6 -3 10 -31 10 -61z m449 23 c-6 -14 -18 -28 -27 -32 -13 -5 -13 -3 0
17 8 13 18 29 22 36 14 23 17 6 5 -21z m-497 11 c-5 -7 -12 -22 -15 -33 -4
-16 -5 -15 -6 6 -1 27 6 39 22 39 6 0 5 -5 -1 -12z m1228 -89 c86 -68 100 -84
99 -111 0 -15 -3 -18 -6 -8 -9 24 -77 90 -93 90 -24 1 -59 36 -75 74 -18 42
-19 73 -2 34 7 -15 41 -50 77 -79z m-1083 85 c-3 -3 -12 -4 -19 -1 -8 3 -5 6
6 6 11 1 17 -2 13 -5z m127 -10 c3 -8 2 -23 -3 -32 -4 -9 -14 -47 -21 -84 -8
-37 -18 -64 -23 -61 -10 6 -6 43 15 136 13 58 21 69 32 41z m46 -34 c20 -20
27 -60 11 -60 -5 0 -13 -10 -17 -22 -3 -12 -16 -31 -27 -42 -11 -12 -17 -15
-13 -8 10 16 20 78 20 120 -1 38 0 38 26 12z m805 -30 c14 -22 29 -40 33 -40
4 0 26 -16 47 -36 22 -20 50 -44 61 -55 23 -20 44 -87 44 -137 0 -39 -26 -50
-33 -14 -2 15 -8 36 -12 46 -6 13 -5 17 3 12 17 -10 25 30 10 53 -18 29 -26
26 -22 -6 4 -25 2 -24 -11 7 -29 67 -41 85 -64 96 -13 7 -33 24 -45 37 -63 76
-64 77 -46 77 5 0 21 -18 35 -40z m-1012 -18 c-3 -12 -9 -22 -14 -22 -12 0
-11 7 2 32 13 25 20 19 12 -10z m1312 -2 c9 -18 15 -57 15 -102 0 -40 9 -106
20 -147 25 -92 26 -131 4 -131 -8 0 -12 4 -9 10 3 6 -1 7 -9 4 -9 -3 -16 -12
-16 -20 0 -8 -4 -14 -9 -14 -11 0 -2 38 10 46 5 3 9 30 9 60 0 34 -4 53 -10
49 -5 -3 -10 -18 -10 -33 0 -46 -11 -72 -31 -72 -28 0 -42 37 -44 115 -1 39
-5 79 -9 90 -5 13 -2 11 8 -5 8 -14 15 -34 16 -45 0 -14 3 -16 11 -8 9 9 9 24
-1 60 -21 81 -32 103 -61 120 -31 19 -38 33 -15 33 8 0 23 3 33 6 17 5 17 5 0
-9 -18 -15 -18 -15 2 -22 12 -3 21 -10 21 -15 0 -5 7 -15 15 -24 25 -24 36
-136 20 -203 -7 -32 -10 -64 -6 -72 16 -27 31 51 31 160 0 102 -1 109 -27 141
-21 25 -22 28 -5 14 25 -21 42 -15 23 8 -7 8 -10 20 -6 26 9 15 13 13 30 -20z
m-1040 -38 c-4 -15 -17 -45 -31 -67 -23 -38 -24 -39 -24 -13 0 34 40 119 53
111 5 -3 6 -17 2 -31z m835 -250 c28 -174 30 -182 42 -182 6 0 8 19 5 48 -2
26 -2 37 0 25 5 -28 8 -28 40 -3 14 11 30 20 34 20 5 0 9 -9 9 -20 0 -11 -4
-20 -10 -20 -5 0 -10 -7 -10 -15 0 -8 -13 -29 -28 -47 -16 -18 -39 -64 -52
-101 -24 -69 -50 -106 -50 -72 0 9 -9 24 -20 33 -15 13 -22 38 -30 109 -15
132 -17 138 -137 276 -18 21 -33 45 -33 55 1 12 5 9 16 -10 8 -16 19 -28 24
-28 17 0 116 -106 127 -136 6 -16 15 -51 21 -79 19 -91 35 -145 43 -145 19 0
31 42 19 68 -6 14 -15 67 -19 118 -9 103 -6 98 -130 221 -36 34 -62 65 -59 68
5 6 26 -11 108 -89 110 -104 86 -5 -27 111 -39 40 -68 75 -65 77 2 3 40 -31
83 -74 l79 -80 20 -128z m-1070 264 c0 -3 -4 -8 -10 -11 -5 -3 -10 -1 -10 4 0
6 5 11 10 11 6 0 10 -2 10 -4z m40 -33 c0 -32 -5 -28 -14 10 -4 19 -3 26 4 22
5 -3 10 -18 10 -32z m244 -26 c-8 -37 -54 -126 -54 -105 0 33 41 148 51 142 6
-3 7 -19 3 -37z m-524 23 c0 -5 -5 -10 -11 -10 -5 0 -7 5 -4 10 3 6 8 10 11
10 2 0 4 -4 4 -10z m243 -35 c4 -25 10 -57 13 -72 6 -27 6 -27 -11 -11 -12 11
-20 37 -23 72 -5 68 12 76 21 11z m802 35 c-3 -5 -1 -10 6 -10 7 0 10 -3 6 -6
-9 -9 -28 6 -22 17 4 5 8 9 11 9 3 0 2 -4 -1 -10z m-846 -92 c8 -45 22 -85 37
-105 13 -17 24 -38 24 -45 0 -7 -12 5 -27 26 -27 37 -28 38 -35 15 -6 -22 -6
-21 -6 6 0 17 -5 48 -11 70 -12 47 -14 105 -3 105 4 0 14 -33 21 -72z m-156
50 c12 -6 27 -18 33 -26 7 -9 20 -13 32 -10 17 5 22 0 27 -26 4 -17 13 -50 21
-74 8 -23 14 -55 13 -70 -1 -25 -2 -24 -10 8 -36 131 -40 139 -62 146 -12 4
-29 14 -37 24 -8 9 -24 22 -35 28 -26 15 -10 15 18 0z m256 -35 c1 -7 -3 -13
-9 -13 -5 0 -10 15 -9 33 0 27 2 29 9 12 5 -11 9 -26 9 -32z m265 -23 c-10
-28 -27 -58 -38 -68 -22 -20 -21 -18 19 65 35 73 45 75 19 3z m-556 5 c-2 -1
-21 -5 -43 -8 -35 -5 -38 -4 -22 7 9 7 28 11 42 8 14 -2 25 -6 23 -7z m301
-55 c0 -23 -1 -23 -9 -5 -5 11 -9 29 -9 40 -1 17 1 17 9 5 5 -8 9 -26 9 -40z
m-231 1 c29 -37 31 -48 15 -109 -8 -34 -20 -62 -25 -62 -6 0 -7 -7 -4 -16 8
-21 -4 -65 -16 -58 -5 4 -5 10 0 17 13 17 5 55 -18 84 -11 14 -20 31 -20 38 0
7 -22 18 -49 25 -28 6 -60 21 -73 32 -14 12 -32 18 -48 15 -23 -5 -24 -4 -5 9
25 19 40 18 84 -5 54 -28 94 -44 111 -45 10 -1 15 -12 16 -31 2 -55 3 -60 14
-49 5 5 11 34 12 63 3 65 -14 81 -86 81 -28 0 -58 5 -66 10 -11 7 -4 9 26 8
22 0 49 4 60 10 22 13 54 6 72 -17z m639 7 c-3 -8 -6 -5 -6 6 -1 11 2 17 5 13
3 -3 4 -12 1 -19z m363 -132 c0 -4 11 -22 25 -40 14 -17 29 -36 34 -42 16 -20
42 -126 46 -187 3 -40 11 -70 24 -88 l20 -27 -34 -39 c-19 -21 -35 -41 -35
-45 0 -5 -4 -8 -10 -8 -5 0 -10 16 -10 35 0 38 -22 58 -75 69 -25 5 -41 24
-92 104 -36 57 -71 127 -84 169 -13 40 -33 84 -46 99 -35 41 -28 54 8 16 17
-18 49 -68 70 -111 22 -42 52 -87 68 -99 16 -11 45 -50 65 -86 29 -52 42 -66
61 -66 30 0 47 44 35 92 -19 75 -78 227 -98 253 -12 15 -22 32 -22 37 0 6 -10
24 -21 41 -13 19 -2 11 24 -18 25 -27 46 -54 47 -59z m-470 77 c0 -2 -11 -20
-24 -39 -20 -29 -25 -32 -30 -18 -4 11 -1 21 9 26 8 5 15 18 15 28 0 13 5 18
15 14 8 -4 15 -8 15 -11z m-108 -15 c-7 -7 -12 -8 -12 -2 0 6 3 14 7 17 3 4 9
5 12 2 2 -3 -1 -11 -7 -17z m-629 -25 c18 -10 55 -25 82 -34 38 -12 51 -22 53
-38 3 -21 2 -22 -25 -8 -15 8 -46 18 -67 21 -21 4 -49 14 -62 23 -15 10 -33
13 -54 8 -40 -9 -39 8 3 29 39 19 32 19 70 -1z m1094 -26 c9 -18 16 -35 15
-39 -1 -5 2 -8 6 -8 14 0 54 -86 50 -106 -5 -18 -5 -18 -12 1 -10 28 -42 92
-71 144 -14 24 -25 46 -25 48 0 12 22 -12 37 -40z m656 -29 c10 -37 -29 0 -41
39 l-11 38 24 -29 c13 -16 26 -38 28 -48z m-1485 5 c1 -55 -5 -83 -19 -83 -9
0 -4 72 7 113 8 27 11 21 12 -30z m1258 17 c17 0 17 -10 0 -33 -12 -16 -14
-16 -20 -1 -3 8 -5 28 -5 42 1 17 3 21 6 10 2 -10 11 -18 19 -18z m764 22 c0
-10 -50 -35 -57 -28 -3 2 8 11 24 20 34 18 33 18 33 8z m-1882 -37 c-3 -3 -9
2 -12 12 -6 14 -5 15 5 6 7 -7 10 -15 7 -18z m1475 5 c3 -11 1 -18 -4 -14 -5
3 -9 12 -9 20 0 20 7 17 13 -6z m-1533 -59 c-7 -11 -9 -3 -9 29 1 42 1 43 9
16 6 -17 5 -36 0 -45z m323 58 c-8 -8 -9 -16 -1 -29 9 -13 7 -25 -9 -51 -11
-19 -25 -68 -31 -109 -7 -41 -17 -108 -23 -149 -6 -41 -24 -104 -40 -139 -16
-36 -34 -85 -41 -109 -6 -25 -19 -50 -28 -56 -10 -6 -16 -16 -13 -23 2 -6 0
-15 -6 -19 -6 -3 -11 -21 -11 -39 0 -18 -3 -36 -6 -39 -4 -4 -9 -30 -11 -59
-9 -105 -15 -123 -50 -126 -17 -2 -37 3 -46 12 -8 8 -17 12 -21 9 -7 -8 -8 5
-6 183 1 77 5 156 10 175 8 34 74 197 110 274 11 22 33 74 50 115 17 41 34 81
37 88 3 6 -1 12 -9 12 -26 0 -98 -110 -138 -210 -12 -30 -29 -70 -38 -88 -14
-27 -18 -29 -24 -15 -15 39 -7 86 26 151 45 87 70 158 50 141 -11 -9 -14 -8
-14 2 0 10 -3 11 -8 3 -5 -9 -11 -8 -20 2 -11 12 -2 14 56 14 42 0 75 5 87 14
10 7 27 11 37 8 13 -3 18 1 18 14 0 17 1 17 16 3 14 -14 13 -20 -10 -63 -13
-25 -28 -72 -32 -104 -4 -31 -16 -77 -26 -102 -67 -156 -92 -238 -96 -313 -5
-86 0 -109 22 -101 15 6 31 56 45 139 5 28 18 73 29 100 41 100 63 182 77 284
8 56 19 109 26 117 6 8 9 26 6 40 -3 18 0 27 12 31 9 2 23 8 31 13 21 12 26
12 13 -1z m94 -24 c15 -31 15 -36 1 -52 -20 -23 -26 -54 -33 -186 -5 -89 -11
-119 -34 -170 -16 -34 -32 -72 -35 -84 -4 -11 -13 -27 -21 -33 -35 -29 -6 -65
60 -74 25 -4 45 -10 45 -14 0 -4 16 -25 35 -46 19 -22 35 -44 35 -50 1 -26 69
-84 95 -81 37 4 85 20 112 37 35 21 53 17 53 -11 0 -29 -31 -48 -97 -61 -51
-10 -62 -16 -65 -34 -2 -11 -6 -19 -9 -16 -4 3 -15 -5 -26 -18 l-19 -24 -2 27
c-1 15 -10 39 -20 53 -10 15 -24 41 -31 57 -7 17 -29 49 -50 72 -30 34 -47 44
-82 48 -71 10 -139 26 -139 34 0 4 4 11 9 17 49 51 125 266 147 419 10 66 24
128 32 137 10 12 12 28 8 53 -9 46 9 46 31 0z m90 -14 c8 -8 11 -20 7 -30 -12
-27 -14 -161 -4 -240 15 -108 44 -165 123 -239 61 -57 56 -133 -10 -178 -59
-40 -94 -15 -181 130 -46 76 -56 142 -27 166 8 7 15 18 15 24 0 6 7 22 16 34
12 17 16 52 17 151 1 84 6 133 14 143 9 11 10 24 3 49 -13 43 -12 49 2 24 7
-11 18 -26 25 -34z m61 28 c15 -16 21 -42 27 -121 6 -91 36 -231 63 -299 6
-14 23 -37 39 -50 53 -46 93 -114 93 -158 0 -23 -4 -41 -10 -41 -5 0 -15 -18
-21 -40 -15 -48 -35 -55 -23 -7 11 44 7 123 -8 152 -7 13 -31 43 -53 67 -22
24 -47 54 -56 68 -25 38 -49 160 -50 247 0 78 -10 153 -24 186 -10 23 0 22 23
-4z m-897 -30 c70 -23 75 -27 68 -47 -5 -12 -11 -22 -13 -22 -3 0 -3 6 0 14 4
9 -11 16 -52 25 -32 6 -60 9 -62 6 -3 -3 0 -5 6 -5 7 0 12 -5 12 -11 0 -6 -14
-9 -32 -7 -28 2 -33 7 -33 28 0 15 5 24 13 23 6 -2 12 2 12 7 0 6 -5 10 -11
10 -5 0 -7 5 -3 11 4 6 9 7 13 2 3 -5 40 -20 82 -34z m286 -11 c-2 -13 -4 -5
-4 17 -1 22 1 32 4 23 2 -10 2 -28 0 -40z m1773 44 c0 -10 -35 -27 -109 -53
-72 -25 -76 -18 -5 9 30 12 65 29 77 37 24 17 37 19 37 7z m105 -6 c-96 -32
-124 -53 -152 -116 -15 -36 -32 -115 -38 -185 -3 -33 -8 -73 -10 -88 -3 -17
-1 -26 5 -22 13 8 13 -16 0 -49 -13 -36 -28 -32 -39 12 -27 100 -22 194 15
314 5 15 2 16 -19 5 -40 -21 -107 -98 -107 -124 0 -13 9 -41 20 -63 28 -56 25
-76 -20 -136 -46 -60 -68 -134 -44 -147 8 -4 14 -23 14 -41 0 -22 5 -33 15
-33 8 0 15 7 15 14 0 8 -4 11 -10 8 -6 -3 -10 4 -10 17 0 13 4 18 8 13 16 -24
66 -3 75 30 2 11 4 0 2 -25 -1 -28 -6 -44 -13 -42 -15 3 -16 5 8 -63 24 -69
24 -75 7 -51 -12 17 -14 17 -20 2 -10 -26 -50 -14 -58 18 -8 29 -86 136 -99
136 -4 0 -12 12 -18 28 -6 15 -14 36 -18 47 -8 21 -11 32 -13 53 0 7 -5 11
-10 8 -14 -9 -24 50 -16 91 9 49 26 75 41 62 9 -8 18 -3 31 18 10 15 23 33 29
40 6 6 25 34 43 61 32 50 66 76 146 115 22 10 76 36 120 57 95 46 102 48 135
49 19 0 15 -4 -15 -13z m-345 -11 c7 -9 8 -15 2 -15 -5 0 -12 7 -16 15 -3 8
-4 15 -2 15 2 0 9 -7 16 -15z m-129 -45 c-30 -26 -49 -26 -26 0 10 11 25 20
34 20 12 -1 10 -5 -8 -20z m-1589 -62 c-6 -6 -7 0 -4 19 5 21 7 23 10 9 2 -10
0 -22 -6 -28z m117 -50 c24 -4 46 2 70 16 28 16 33 17 23 4 -8 -10 -22 -20
-33 -23 -10 -4 -22 -17 -25 -31 -5 -21 -48 -54 -69 -54 -3 0 -3 15 0 33 6 29
3 33 -24 44 -17 6 -31 16 -31 21 0 15 33 20 45 6 6 -7 25 -14 44 -16z m2672
-54 c16 -37 30 -76 30 -88 1 -35 -36 -149 -52 -156 -101 -48 -152 -70 -163
-70 -8 0 -28 16 -45 35 -27 31 -31 43 -31 96 0 83 43 173 102 212 40 27 58 34
101 36 25 1 31 -6 58 -65z m-2887 24 c-4 -7 -3 -8 4 -4 16 10 51 -24 45 -43
-4 -9 -2 -13 2 -9 5 5 14 -1 22 -11 10 -16 11 -25 1 -45 -6 -14 -15 -26 -19
-26 -4 0 -10 -13 -14 -28 -3 -15 -19 -41 -36 -57 -39 -36 -43 -49 -59 -160
-11 -78 -10 -107 6 -234 14 -106 24 -151 36 -163 10 -10 14 -19 10 -22 -13 -8
-73 26 -87 48 -15 24 -50 253 -61 391 -4 55 -15 113 -29 150 -13 33 -25 71
-28 85 -3 14 -8 35 -12 47 -6 19 -1 25 36 42 24 12 73 27 109 35 84 18 82 18
74 4z m1560 -135 c-8 -56 -12 -65 -25 -58 -12 8 -12 45 1 45 6 0 10 14 10 30
0 17 5 30 11 30 7 0 8 -16 3 -47z m1486 12 c16 -20 8 -29 -19 -20 -12 4 -18
12 -14 21 7 18 17 18 33 -1z m-2805 -325 c0 -146 4 -274 9 -284 8 -16 7 -18
-9 -12 -11 4 -22 2 -26 -6 -4 -7 -12 -9 -16 -4 -4 5 -2 11 5 13 6 3 12 14 12
26 0 18 -2 19 -10 7 -8 -12 -10 -12 -16 3 -3 9 -12 17 -19 17 -17 0 -21 29
-19 135 3 111 0 125 -31 125 -34 0 -39 -30 -31 -164 4 -61 8 -132 8 -158 0
-27 4 -48 10 -48 5 0 6 -5 2 -11 -4 -8 -9 -8 -17 0 -6 6 -19 11 -29 11 -10 0
-18 5 -18 10 0 6 7 10 15 10 22 0 23 58 2 72 -8 5 -16 -5 -23 -25 -11 -30 -12
-28 -19 48 -14 144 10 389 41 426 8 8 14 19 14 23 0 17 56 86 71 86 8 0 24 6
35 14 17 13 21 12 39 -17 19 -30 20 -49 20 -297z m901 183 c16 -24 32 -43 37
-43 15 0 6 -41 -13 -62 l-20 -22 0 25 c0 27 -34 89 -49 89 -10 0 -51 62 -51
77 0 22 68 -24 96 -64z m431 0 c-3 -10 -5 -4 -5 12 0 17 2 24 5 18 2 -7 2 -21
0 -30z m355 -128 c-5 -16 -14 -31 -21 -33 -8 -3 -11 0 -7 6 3 6 2 22 -4 36 -9
25 3 38 13 14 3 -7 6 -4 6 7 1 12 4 16 11 9 5 -5 6 -22 2 -39z m1138 20 c7
-14 11 -28 7 -31 -3 -3 -13 8 -22 25 -8 17 -12 31 -7 31 5 0 15 -11 22 -25z
m-966 -81 c10 -25 -1 -29 -14 -5 -6 12 -7 21 -1 21 5 0 12 -7 15 -16z m170
-50 c4 -10 -3 -14 -28 -14 -23 0 -39 -7 -51 -24 -10 -13 -25 -23 -34 -21 -17
2 -29 45 -13 45 6 0 24 13 42 30 30 28 33 29 55 14 13 -8 26 -22 29 -30z m-94
28 c0 -5 -7 -9 -15 -9 -8 0 -12 4 -9 9 3 4 9 8 15 8 5 0 9 -4 9 -8z m-149 -36
c6 3 10 0 8 -7 -3 -26 1 -39 12 -36 6 1 14 -5 16 -13 4 -12 3 -12 -5 -1 -12
17 -24 -1 -16 -23 3 -9 1 -16 -5 -16 -6 0 -12 12 -12 28 -1 18 -3 21 -6 9 -5
-18 -6 -17 -20 3 -11 16 -12 24 -3 35 6 8 9 19 5 25 -3 5 -3 16 2 23 5 8 9 5
11 -11 2 -12 8 -20 13 -16z m773 4 c-17 -33 -23 -38 -20 -16 2 13 24 46 31 46
2 0 -3 -13 -11 -30z m-809 0 c3 -5 1 -10 -4 -10 -6 0 -11 5 -11 10 0 6 2 10 4
10 3 0 8 -4 11 -10z m-1319 -36 c42 -25 134 -130 134 -153 0 -14 -35 -32 -45
-23 -4 4 -4 -9 -1 -28 l7 -35 -16 34 c-18 40 -19 61 -2 61 6 0 13 11 13 25 1
14 -2 25 -7 25 -5 0 -9 -6 -10 -12 0 -10 -2 -10 -6 0 -2 6 -8 10 -13 7 -4 -3
-13 2 -20 10 -7 8 -18 15 -25 15 -7 0 -18 6 -24 13 -6 8 -38 22 -72 32 -60 18
-62 18 -75 0 -11 -15 -14 -16 -14 -3 0 23 31 46 70 51 19 2 41 5 48 5 7 1 33
-10 58 -24z m2038 -11 c6 -15 8 -15 17 -3 8 11 10 12 7 1 -11 -40 -234 -82
-283 -53 -11 6 -14 12 -7 12 7 0 11 4 7 9 -7 12 57 22 157 24 42 1 72 4 66 6
-6 2 -5 7 3 12 20 13 26 11 33 -8z m-2136 -49 c37 -8 15 -24 -34 -24 -28 0
-44 4 -44 13 0 13 41 19 78 11z m1582 -4 c0 -5 -4 -10 -10 -10 -5 0 -10 5 -10
10 0 6 5 10 10 10 6 0 10 -4 10 -10z m807 -62 c-3 -7 -5 -2 -5 12 0 14 2 19 5
13 2 -7 2 -19 0 -25z m-2284 -3 c20 -14 37 -33 36 -43 0 -9 -3 -12 -5 -5 -3 7
-11 10 -19 7 -7 -3 -28 2 -46 11 -22 12 -47 16 -80 13 -55 -6 -59 13 -6 30 52
16 80 13 120 -13z m2297 -24 c0 -6 -4 -13 -10 -16 -5 -3 -10 1 -10 9 0 9 5 16
10 16 6 0 10 -4 10 -9z m-2802 -18 c-1 -10 1 -24 5 -30 5 -7 4 -13 -2 -13 -5
0 -11 6 -14 13 -4 13 3 47 10 47 2 0 3 -8 1 -17z m421 -19 c18 -9 51 -19 74
-21 23 -3 50 -11 60 -18 16 -11 16 -13 -2 -29 -19 -17 -21 -17 -58 1 -114 58
-131 65 -142 59 -6 -4 -11 -1 -11 8 0 21 38 21 79 0z m1861 6 c0 -5 -9 -10
-21 -10 -11 0 -17 5 -14 10 3 6 13 10 21 10 8 0 14 -4 14 -10z m-1660 -15 c-7
-9 -15 -13 -17 -11 -7 7 7 26 19 26 6 0 6 -6 -2 -15z m-730 -5 c0 -5 -4 -10
-10 -10 -5 0 -10 5 -10 10 0 6 5 10 10 10 6 0 10 -4 10 -10z m2620 1 c0 -31
-155 -75 -171 -49 -7 11 -11 10 -20 -2 -8 -11 -12 -12 -16 -2 -2 6 -11 12 -19
12 -9 0 -13 4 -10 9 10 15 165 24 182 11 11 -10 14 -9 14 3 0 9 8 18 18 20 9
3 18 5 20 6 1 0 2 -3 2 -8z m-1742 -16 c1 -6 -2 -10 -8 -9 -25 3 -30 5 -30 12
0 12 34 8 38 -3z m2052 -25 c0 -5 -5 -10 -11 -10 -5 0 -7 5 -4 10 3 6 8 10 11
10 2 0 4 -4 4 -10z m-1730 -150 c-8 -5 -19 -10 -25 -10 -5 0 -3 5 5 10 8 5 20
10 25 10 6 0 3 -5 -5 -10z m-419 -34 c-10 -12 -8 -19 8 -35 12 -12 18 -21 14
-21 -14 0 -30 15 -41 37 -9 16 -9 23 1 26 23 10 29 7 18 -7z m2189 4 c0 -5 -5
-10 -11 -10 -5 0 -7 5 -4 10 3 6 8 10 11 10 2 0 4 -4 4 -10z m-1730 -20 c0 -5
-5 -10 -11 -10 -5 0 -7 5 -4 10 3 6 8 10 11 10 2 0 4 -4 4 -10z m1738 -22 c-2
-6 -10 -14 -16 -16 -7 -2 -10 2 -6 12 7 18 28 22 22 4z m-2203 -28 c3 -6 -1
-7 -9 -4 -18 7 -21 14 -7 14 6 0 13 -4 16 -10z m2166 -63 c-10 -9 -11 -8 -5 6
3 10 9 15 12 12 3 -3 0 -11 -7 -18z m-2181 -431 c0 -3 -4 -8 -10 -11 -5 -3
-10 -1 -10 4 0 6 5 11 10 11 6 0 10 -2 10 -4z m420 -119 c0 -21 -43 -63 -48
-47 -3 7 3 17 12 22 9 5 16 16 16 23 0 8 5 15 10 15 6 0 10 -6 10 -13z"/>
<path d="M1092 2608 c-6 -6 -12 -19 -12 -27 0 -13 2 -13 16 1 9 9 15 21 13 27
-3 9 -8 8 -17 -1z"/>
<path d="M1285 2100 c-16 -17 -24 -30 -19 -30 13 0 59 48 52 55 -2 3 -17 -9
-33 -25z"/>
<path d="M1661 1757 c-15 -19 1 -75 39 -132 33 -50 57 -75 72 -75 4 0 17 9 28
20 20 20 19 20 -2 56 -12 21 -32 48 -45 62 -12 13 -25 32 -28 42 -8 24 -50 43
-64 27z"/>
<path d="M2531 1854 c0 -11 3 -14 6 -6 3 7 2 16 -1 19 -3 4 -6 -2 -5 -13z"/>
<path d="M2555 1840 c-20 -38 -18 -106 3 -149 22 -44 40 -51 35 -14 -4 27 22
97 53 139 13 20 13 23 -1 38 -9 9 -29 16 -45 16 -22 0 -33 -7 -45 -30z"/>
<path d="M2612 1710 c0 -14 2 -19 5 -12 2 6 2 18 0 25 -3 6 -5 1 -5 -13z"/>
<path d="M2680 1500 c0 -5 5 -10 10 -10 6 0 10 5 10 10 0 6 -4 10 -10 10 -5 0
-10 -4 -10 -10z"/>
<path d="M3650 1928 c-44 -11 -80 -51 -80 -87 0 -36 17 -49 54 -44 74 11 120
63 95 110 -15 28 -26 32 -69 21z"/>
<path d="M778 1937 l-46 -12 13 -35 c14 -38 34 -97 41 -118 3 -10 9 -10 24 -2
24 13 46 54 59 111 9 37 8 46 -6 57 -19 14 -22 14 -85 -1z"/>
<path d="M992 1718 c-7 -7 -12 -22 -12 -35 0 -20 5 -23 35 -23 37 0 44 14 25
51 -12 22 -30 25 -48 7z"/>
<path d="M2424 2782 c-28 -22 -51 -64 -31 -57 7 3 21 0 30 -7 17 -13 17 -14
-2 -35 -12 -12 -17 -25 -12 -28 15 -8 57 40 64 72 3 15 9 37 12 48 6 16 5 17
-4 5 -9 -13 -11 -13 -11 3 0 22 -19 22 -46 -1z"/>
<path d="M2354 2698 c-3 -4 2 -8 10 -8 9 0 19 0 23 -1 4 0 9 3 10 8 4 11 -37
12 -43 1z"/>
<path d="M2491 2653 c-12 -14 -12 -15 0 -11 8 3 24 -4 37 -15 12 -11 22 -16
22 -10 0 5 -10 19 -22 30 -21 19 -24 20 -37 6z"/>
<path d="M789 2603 c-13 -16 -12 -17 4 -4 9 7 17 15 17 17 0 8 -8 3 -21 -13z"/>
<path d="M2550 2571 c0 -18 17 -20 36 -6 18 14 18 14 -8 15 -16 0 -28 -4 -28
-9z"/>
<path d="M3751 2471 c-10 -6 -11 -13 -3 -27 10 -18 11 -18 17 -2 10 25 3 39
-14 29z"/>
<path d="M3938 2440 c-2 -29 0 -40 10 -40 10 0 12 -8 7 -30 -7 -33 0 -37 28
-16 12 9 17 26 16 57 0 34 -2 39 -9 24 -8 -18 -9 -18 -10 5 -2 14 -2 28 -1 33
0 4 -8 7 -18 7 -15 0 -20 -9 -23 -40z"/>
<path d="M2685 2420 c-3 -5 -2 -10 4 -10 5 0 13 5 16 10 3 6 2 10 -4 10 -5 0
-13 -4 -16 -10z"/>
<path d="M2699 2387 c-36 -31 -55 -72 -39 -82 4 -3 15 5 23 18 8 12 26 35 41
50 25 27 33 47 19 47 -5 -1 -24 -15 -44 -33z"/>
<path d="M3987 2326 c-3 -7 -9 -34 -12 -60 -6 -39 -5 -46 9 -46 13 0 16 11 16
60 0 60 -3 72 -13 46z"/>
<path d="M3595 2271 c28 -9 78 -30 113 -46 56 -26 62 -32 62 -60 1 -29 19 -65
35 -65 4 0 5 7 2 15 -10 26 15 29 34 4 10 -13 19 -19 19 -14 0 19 -76 94 -130
128 -30 19 -79 39 -108 46 -75 16 -86 13 -27 -8z"/>
<path d="M145 2133 c-11 -3 -37 -21 -57 -41 -35 -33 -36 -37 -22 -53 8 -9 30
-23 47 -30 31 -12 67 -38 137 -100 19 -17 47 -40 61 -52 31 -27 53 -67 69
-127 7 -25 18 -52 24 -60 7 -8 28 -42 45 -75 73 -134 94 -171 105 -185 6 -8
20 -30 30 -49 23 -41 85 -101 105 -101 11 0 8 6 -8 21 -19 18 -39 56 -84 159
-5 14 -18 54 -28 89 -9 35 -21 67 -26 70 -23 15 -86 153 -103 226 -22 94 -41
142 -67 170 -18 21 -98 75 -109 75 -3 0 -25 16 -48 35 -24 19 -45 34 -47 34
-2 -1 -13 -3 -24 -6z"/>
<path d="M3878 2040 c12 -33 17 -38 24 -25 11 19 7 50 -7 50 -6 0 -15 4 -22 8
-7 5 -6 -8 5 -33z"/>
<path d="M3948 1923 c-2 -4 -2 -21 2 -38 l6 -30 7 29 c8 27 -5 59 -15 39z"/>
<path d="M1 1838 c0 -56 3 -65 27 -84 15 -11 47 -26 72 -33 25 -7 56 -21 70
-31 14 -9 47 -23 73 -30 36 -10 64 -29 117 -79 38 -37 76 -82 85 -101 8 -19
22 -46 31 -60 16 -25 16 -25 -7 1 -13 15 -32 40 -41 58 -20 36 -36 39 -66 11
-16 -15 -22 -17 -22 -7 0 8 10 22 23 31 l22 17 -27 -6 c-20 -4 -35 2 -60 23
-65 57 -99 64 -91 19 7 -38 -23 -43 -42 -8 -17 34 -102 70 -146 62 -4 0 -1
-20 6 -43 10 -36 17 -44 46 -51 19 -5 39 -13 45 -18 6 -4 45 -10 88 -13 43 -2
80 -7 83 -10 3 -3 7 -30 8 -61 3 -60 4 -60 -50 -14 -23 19 -107 39 -165 39
-32 0 -40 -4 -40 -19 0 -28 19 -38 90 -45 75 -9 131 -32 138 -58 4 -17 5 -17
17 -2 14 20 24 9 29 -35 2 -17 -2 -32 -8 -35 -7 -3 -7 -5 2 -5 17 -1 15 -21
-2 -21 -13 0 -76 -116 -76 -139 0 -6 -9 -15 -20 -21 -23 -12 -25 -7 -8 23 14
25 19 42 22 74 1 13 6 26 9 30 12 11 8 23 -9 23 -9 0 -30 6 -47 14 -86 37 -87
37 -94 19 -8 -21 30 -53 63 -53 13 0 24 -4 24 -9 0 -5 8 -12 18 -15 9 -3 -11
-4 -45 -2 -55 4 -63 2 -63 -14 0 -10 10 -25 23 -33 l22 -16 -27 0 c-21 -1 -25
-5 -21 -21 3 -12 0 -20 -7 -20 -7 0 -10 -8 -7 -20 3 -13 0 -20 -9 -20 -8 0
-14 -7 -14 -15 0 -9 9 -15 24 -15 14 0 27 -4 30 -8 2 -4 -11 -6 -30 -4 -28 3
-34 1 -35 -14 0 -11 -2 -29 -3 -41 -1 -12 1 -20 6 -17 14 9 9 -7 -14 -39 -17
-24 -19 -29 -5 -24 11 4 14 2 10 -9 -3 -7 -10 -14 -16 -14 -6 0 -2 -7 9 -16
10 -8 14 -13 7 -10 -6 4 -14 2 -18 -4 -3 -5 1 -10 9 -10 12 0 16 -11 17 -37 1
-21 2 -56 3 -78 1 -26 5 -39 13 -38 7 2 13 -2 13 -8 0 -6 -7 -8 -16 -5 -10 4
-15 0 -13 -12 1 -9 0 -24 -3 -32 -36 -105 -38 -176 -7 -226 11 -19 25 -32 30
-28 12 7 11 -3 -2 -29 -10 -19 -7 -18 17 6 28 27 29 30 30 145 3 195 12 310
28 334 7 13 21 44 31 71 26 70 30 66 51 -58 5 -32 14 -83 35 -193 10 -57 19
-118 19 -136 0 -32 24 -66 47 -66 6 0 14 -6 16 -12 3 -7 6 -2 7 12 0 14 7 34
16 45 13 18 14 15 8 -36 -7 -65 11 -93 22 -33 10 52 -2 231 -20 289 -23 78
-30 163 -16 180 7 9 10 18 6 22 -3 3 1 17 10 31 8 13 17 33 18 45 3 25 32 75
55 96 12 10 13 15 4 18 -8 3 -2 14 17 30 17 13 30 31 30 38 0 7 7 18 15 25 20
16 19 30 -2 30 -15 0 -10 15 5 15 27 1 43 35 16 35 -8 0 -12 5 -9 10 4 6 11 8
16 5 5 -4 9 -1 9 4 0 6 9 11 21 11 17 0 20 4 16 23 -4 12 -2 28 2 36 6 10 0
21 -20 38 -16 14 -40 48 -55 76 -14 29 -43 77 -63 107 -21 31 -47 76 -58 100
-23 53 -105 130 -175 166 -18 9 -35 20 -38 23 -3 3 -30 15 -60 25 -30 10 -62
25 -71 32 -26 23 -29 17 -28 -48z m325 -634 c-3 -9 -6 -24 -6 -35 0 -12 -7
-19 -20 -19 -24 0 -26 13 -5 34 8 8 15 19 15 25 0 6 5 11 11 11 6 0 8 -7 5
-16z m-26 -90 c0 -8 -4 -12 -10 -9 -5 3 -10 13 -10 21 0 8 5 12 10 9 6 -3 10
-13 10 -21z m70 -9 c0 -8 -4 -15 -10 -15 -5 0 -10 7 -10 15 0 8 5 15 10 15 6
0 10 -7 10 -15z m-35 -35 c3 -5 2 -10 -4 -10 -5 0 -13 5 -16 10 -3 6 -2 10 4
10 5 0 13 -4 16 -10z m-192 -7 c-7 -2 -21 -2 -30 0 -10 3 -4 5 12 5 17 0 24
-2 18 -5z m-38 -131 c-3 -3 -11 0 -18 7 -9 10 -8 11 6 5 10 -3 15 -9 12 -12z
m212 -424 c-3 -8 -6 -5 -6 6 -1 11 2 17 5 13 3 -3 4 -12 1 -19z m-253 -90 c-8
-29 -23 -48 -37 -48 -5 0 -3 8 6 18 10 10 17 26 17 35 0 9 5 17 11 17 6 0 8
-9 3 -22z"/>
<path d="M3070 1729 c0 -5 5 -7 10 -4 6 3 10 8 10 11 0 2 -4 4 -10 4 -5 0 -10
-5 -10 -11z"/>
<path d="M3963 1695 c0 -8 6 -16 14 -19 11 -4 11 -1 3 14 -13 24 -17 25 -17 5z"/>
<path d="M3392 1672 c-10 -9 -25 -37 -32 -61 -12 -39 -12 -45 2 -55 9 -7 44
-13 77 -14 l61 -2 0 31 c0 40 -24 80 -61 101 -26 16 -30 16 -47 0z"/>
<path d="M250 1433 c0 -10 4 -14 8 -8 4 6 11 13 16 18 5 4 2 7 -7 7 -10 0 -17
-8 -17 -17z"/>
<path d="M60 1351 c0 -27 15 -41 41 -41 30 0 74 -34 64 -49 -2 -5 4 -11 15
-14 11 -3 18 -1 14 4 -3 5 7 8 23 8 17 -1 21 -3 11 -6 -18 -4 -25 -23 -10 -23
11 0 42 34 42 46 0 10 -57 37 -139 65 -63 22 -61 22 -61 10z"/>
<path d="M233 1326 c0 -7 6 -13 14 -13 7 0 13 4 13 8 0 4 -6 9 -13 12 -8 3
-14 0 -14 -7z"/>
<path d="M1390 1216 c0 -7 17 -32 38 -55 31 -34 44 -41 79 -43 23 -1 40 -5 37
-9 -7 -12 -85 0 -110 16 -12 8 -29 21 -39 31 -16 16 -17 16 -13 -6 4 -32 50
-63 106 -71 l47 -6 -50 -2 c-27 0 -63 6 -79 14 -36 19 -34 20 -32 -12 2 -39
13 -53 42 -53 13 0 24 -4 24 -9 0 -6 -12 -6 -32 0 -41 11 -38 12 -38 -5 0 -8
6 -17 13 -19 10 -4 10 -6 0 -6 -15 -1 -18 -31 -4 -31 5 0 11 -6 14 -14 4 -10
0 -12 -14 -9 -22 6 -26 -12 -4 -21 8 -3 15 -10 15 -15 0 -6 -6 -8 -14 -5 -20
8 -35 -50 -42 -162 -7 -104 -25 -182 -59 -255 -28 -62 -24 -75 11 -34 l25 30
-6 -43 c-3 -24 -12 -53 -19 -65 -9 -15 -11 -29 -5 -42 l9 -20 -1 20 c-2 35 1
41 21 42 13 1 18 -2 14 -9 -4 -7 -2 -8 4 -4 18 11 14 26 -5 26 -15 0 -16 2 -3
10 20 13 43 13 35 0 -3 -6 -1 -10 4 -10 6 0 11 7 11 15 0 8 -5 15 -11 15 -8 0
-8 4 -1 13 6 7 16 47 22 88 13 84 34 155 53 178 28 33 76 197 80 274 1 15 5
27 10 27 4 0 7 14 7 30 0 17 5 30 10 30 6 0 10 6 9 13 -2 6 5 29 14 51 21 47
21 50 1 42 -27 -10 -93 16 -127 51 -35 36 -47 41 -47 19z m17 -162 c-3 -3 -12
-4 -19 -1 -8 3 -5 6 6 6 11 1 17 -2 13 -5z m56 -11 c-7 -2 -19 -2 -25 0 -7 3
-2 5 12 5 14 0 19 -2 13 -5z m12 -51 c-8 -8 -25 10 -19 20 4 6 9 5 15 -3 4 -7
6 -15 4 -17z m-8 -32 c14 -11 22 -20 18 -20 -4 0 -18 9 -32 20 -14 11 -22 20
-18 20 4 0 18 -9 32 -20z m-95 -408 c3 -10 0 -19 -6 -19 -6 0 -12 11 -12 24
-2 26 11 23 18 -5z"/>
<path d="M1770 1141 c0 -13 29 -35 37 -28 7 8 -15 37 -28 37 -5 0 -9 -4 -9 -9z"/>
<path d="M3340 1133 c0 -30 10 -54 21 -47 5 3 9 1 9 -5 0 -11 141 -8 190 3 18
4 15 1 -10 -11 -24 -11 -60 -17 -112 -18 -90 0 -93 -4 -52 -75 25 -44 39 -103
50 -204 3 -28 7 -53 10 -57 2 -4 0 -10 -6 -14 -5 -3 -10 -17 -10 -30 0 -13 -4
-34 -9 -47 -44 -113 -61 -162 -77 -218 -19 -70 -36 -102 -71 -138 -24 -24 -28
-39 -14 -60 7 -11 9 -11 14 2 7 18 37 22 37 5 0 -5 -4 -7 -10 -4 -5 3 -10 -1
-10 -9 0 -9 15 -19 37 -25 43 -12 63 -1 63 36 0 22 -4 25 -25 21 -13 -3 -22
-1 -19 3 3 5 18 9 34 9 31 0 100 28 112 45 4 6 8 23 8 39 0 31 25 140 40 171
5 11 18 57 29 103 12 46 27 93 36 105 8 12 15 31 15 43 0 12 14 46 30 77 17
31 30 61 30 67 0 5 -11 33 -24 62 -13 29 -27 69 -31 88 -4 19 -12 50 -18 68
-10 30 -14 32 -52 29 -23 -2 -46 -6 -51 -9 -5 -3 -39 -9 -75 -13 -59 -6 -68
-5 -78 11 -10 18 -10 18 -11 -3z m215 -133 c-16 -11 -39 -20 -50 -19 -14 0
-11 4 12 12 17 7 35 15 39 20 4 4 12 7 18 7 6 0 -2 -9 -19 -20z m-122 -7 c-7
-2 -19 -2 -25 0 -7 3 -2 5 12 5 14 0 19 -2 13 -5z m64 -129 c-3 -3 -12 -4 -19
-1 -8 3 -5 6 6 6 11 1 17 -2 13 -5z m-20 -40 c-3 -3 -12 -4 -19 -1 -8 3 -5 6
6 6 11 1 17 -2 13 -5z m61 -1 c-10 -2 -26 -2 -35 0 -10 3 -2 5 17 5 19 0 27
-2 18 -5z"/>
<path d="M995 831 c-3 -5 -1 -12 5 -16 5 -3 10 1 10 9 0 18 -6 21 -15 7z"/>
<path d="M1020 830 c0 -5 7 -10 16 -10 8 0 12 5 9 10 -3 6 -10 10 -16 10 -5 0
-9 -4 -9 -10z"/>
<path d="M607 735 c-4 -8 -2 -17 2 -20 5 -2 11 4 14 15 6 23 -8 27 -16 5z"/>
<path d="M3950 733 c0 -12 5 -25 10 -28 13 -8 13 15 0 35 -8 12 -10 11 -10 -7z"/>
<path d="M3640 715 c-7 -8 -9 -15 -6 -15 4 0 14 7 22 15 9 8 11 15 6 15 -5 0
-15 -7 -22 -15z"/>
<path d="M690 675 c0 -8 2 -15 4 -15 2 0 6 7 10 15 3 8 1 15 -4 15 -6 0 -10
-7 -10 -15z"/>
<path d="M676 635 c-3 -8 -1 -15 4 -15 6 0 10 7 10 15 0 8 -2 15 -4 15 -2 0
-6 -7 -10 -15z"/>
<path d="M2776 492 c-3 -6 -1 -14 5 -17 15 -10 25 3 12 16 -7 7 -13 7 -17 1z"/>
<path d="M3236 493 c-12 -12 -6 -33 9 -33 8 0 15 6 15 14 0 17 -14 28 -24 19z"/>
<path d="M393 390 c1 -54 13 -48 19 9 1 19 -2 36 -8 38 -7 2 -11 -14 -11 -47z"/>
<path d="M3930 396 c0 -9 5 -16 10 -16 6 0 10 4 10 9 0 6 -4 13 -10 16 -5 3
-10 -1 -10 -9z"/>
<path d="M1260 379 c0 -5 5 -7 10 -4 6 3 10 8 10 11 0 2 -4 4 -10 4 -5 0 -10
-5 -10 -11z"/>
<path d="M1345 330 c3 -5 8 -10 11 -10 2 0 4 5 4 10 0 6 -5 10 -11 10 -5 0 -7
-4 -4 -10z"/>
<path d="M2160 323 c0 -5 5 -15 10 -23 8 -12 10 -11 10 8 0 12 -4 22 -10 22
-5 0 -10 -3 -10 -7z"/>
<path d="M3090 320 c0 -5 5 -10 11 -10 5 0 7 5 4 10 -3 6 -8 10 -11 10 -2 0
-4 -4 -4 -10z"/>
<path d="M65 280 c-9 -17 -13 -35 -10 -40 10 -16 45 -12 45 5 0 8 5 15 10 15
6 0 10 5 10 11 0 5 -4 7 -10 4 -5 -3 -10 3 -10 14 0 30 -17 26 -35 -9z"/>
<path d="M274 294 c5 -13 2 -15 -17 -10 -17 4 -30 -1 -43 -16 -16 -18 -16 -20
-3 -15 9 3 27 -2 40 -10 12 -9 19 -11 15 -5 -3 6 2 16 14 22 24 13 26 35 4 44
-12 5 -15 2 -10 -10z"/>
<path d="M1900 290 c0 -6 7 -10 15 -10 8 0 15 2 15 4 0 2 -7 6 -15 10 -8 3
-15 1 -15 -4z"/>
<path d="M176 273 c-6 -14 -5 -15 5 -6 7 7 10 15 7 18 -3 3 -9 -2 -12 -12z"/>
<path d="M1875 278 c-6 -16 -3 -48 8 -65 4 -6 6 -17 4 -25 -2 -7 -2 -10 0 -5
3 4 8 5 12 2 14 -8 10 84 -5 96 -11 9 -15 8 -19 -3z"/>
<path d="M1590 271 c0 -6 4 -13 10 -16 6 -3 7 1 4 9 -7 18 -14 21 -14 7z"/>
<path d="M3599 253 c-1 -7 -2 -17 -3 -22 0 -5 -4 -13 -8 -17 -5 -4 -8 -17 -8
-29 0 -19 5 -22 33 -21 29 1 32 5 35 35 2 18 -1 38 -7 44 -8 8 -11 7 -11 -3 0
-9 -5 -8 -15 6 -9 11 -15 14 -16 7z"/>
<path d="M1556 234 c-5 -12 -2 -15 10 -10 8 3 18 6 20 6 3 0 2 5 -1 10 -9 15
-22 12 -29 -6z"/>
<path d="M1637 234 c-16 -9 -27 -17 -25 -19 8 -8 47 8 52 21 6 17 8 17 -27 -2z"/>
<path d="M1920 237 c0 -7 5 -18 12 -25 9 -9 9 -12 0 -12 -9 0 -9 -4 0 -20 19
-30 32 -7 18 34 -11 35 -30 49 -30 23z"/>
<path d="M1740 231 c0 -21 13 -41 26 -41 17 0 17 5 4 31 -11 20 -30 26 -30 10z"/>
<path d="M940 220 c0 -5 5 -10 10 -10 6 0 10 5 10 10 0 6 -4 10 -10 10 -5 0
-10 -4 -10 -10z"/>
<path d="M1366 222 c-3 -5 1 -15 9 -22 16 -14 20 -3 6 19 -5 8 -11 9 -15 3z"/>
<path d="M2076 215 c-9 -26 -7 -32 5 -12 6 10 9 21 6 23 -2 3 -7 -2 -11 -11z"/>
<path d="M3526 191 c1 -36 24 -40 24 -3 0 16 -5 29 -13 29 -7 0 -12 -11 -11
-26z"/>
<path d="M1681 197 c-13 -16 -5 -27 21 -27 20 0 21 1 12 24 -7 20 -18 20 -33
3z"/>
<path d="M1856 193 c-6 -14 -5 -15 5 -6 7 7 10 15 7 18 -3 3 -9 -2 -12 -12z"/>
<path d="M3158 198 c9 -9 15 -9 24 0 9 9 7 12 -12 12 -19 0 -21 -3 -12 -12z"/>
<path d="M3501 194 c0 -11 3 -14 6 -6 3 7 2 16 -1 19 -3 4 -6 -2 -5 -13z"/>
<path d="M2920 192 c0 -10 22 -32 32 -32 15 0 8 28 -8 34 -21 8 -24 8 -24 -2z"/>
<path d="M3452 191 c-11 -7 -10 -10 3 -15 26 -10 35 -7 29 9 -7 17 -13 18 -32
6z"/>
<path d="M2160 178 c0 -11 28 -10 35 1 3 6 -4 9 -15 8 -11 -1 -20 -5 -20 -9z"/>
<path d="M3110 180 c0 -5 5 -10 10 -10 6 0 10 5 10 10 0 6 -4 10 -10 10 -5 0
-10 -4 -10 -10z"/>
<path d="M3810 170 c0 -5 5 -10 11 -10 5 0 7 5 4 10 -3 6 -8 10 -11 10 -2 0
-4 -4 -4 -10z"/>
<path d="M1515 139 c-4 -6 -5 -12 -2 -15 2 -3 7 2 10 11 7 17 1 20 -8 4z"/>
<path d="M3475 140 c3 -5 8 -10 11 -10 2 0 4 5 4 10 0 6 -5 10 -11 10 -5 0 -7
-4 -4 -10z"/>
<path d="M3580 140 c0 -5 5 -10 11 -10 5 0 7 5 4 10 -3 6 -8 10 -11 10 -2 0
-4 -4 -4 -10z"/>
<path d="M857 134 c-8 -8 1 -24 14 -24 5 0 9 7 9 15 0 15 -12 20 -23 9z"/>
<path d="M3420 130 c20 -13 33 -13 25 0 -3 6 -14 10 -23 10 -15 0 -15 -2 -2
-10z"/>
<path d="M3635 130 c3 -5 10 -10 16 -10 5 0 9 5 9 10 0 6 -7 10 -16 10 -8 0
-12 -4 -9 -10z"/>
</g>
</svg>
